# xmcd
#
# Track frame offsets:
#	150
#	15753
#	31678
#	47481
#	61499
#	77230
#	94491
#	110149
#	126063
#	141809
#	155893
#	171615
#
# Disc length: 2520 seconds
#
# Revision: 1
# Processed by: cddbd v1.5.2PL0 Copyright (c) Steve Scherf et al.
# Submitted via: audiograbber 1.83.01
#
DISCID=a109d60c
DTITLE=Chartbuster - CB20261
DYEAR=1900
DGENRE=Karaoke
TTITLE0=Warren Brothers - Move on (Vocal Version)
TTITLE1=Marshall Dyllon - Live It Up (Vocal Version)
TTITLE2=Mark Wills - I Want To Know (Everything There Is To Know About You) (Vo
TTITLE2=cal Version)
TTITLE3=Dwight Yokam - What Do You Know About Love (Vocal Version)
TTITLE4=Darryl Worley - Good Day To Run (Vocal Version)
TTITLE5=John Anderson - Nobody's Got It All (Vocal Version)
TTITLE6=Warren Brothers - Move On
TTITLE7=Marshall Dyllon - Live It Up
TTITLE8=Mark Wills - I Want To Know (Everything There Is To Know About You)
TTITLE9=Dwight Yokam - What Do You Know About Love
TTITLE10=Darryl Worley - Good Day To Run
TTITLE11=John Anderson - Nobody's Got It All
EXTD=
EXTT0=
EXTT1=
EXTT2=
EXTT3=
EXTT4=
EXTT5=
EXTT6=
EXTT7=
EXTT8=
EXTT9=
EXTT10=
EXTT11=
PLAYORDER=
